 <svg version="1.0" xmlns="http://www.w3.org/2000/svg"
                         width="16.000000pt" height="16.000000pt" viewBox="0 0 840.000000 980.000000"
                         preserveAspectRatio="xMidYMid meet">

                        <g transform="translate(0.000000,980.000000) scale(0.100000,-0.100000)"
                           fill="#000000" stroke="none">
                            <path d="M3723 9789 c-291 -49 -539 -317 -568 -616 l-8 -73 -1091 -2 -1091 -3
-56 -26 c-79 -37 -133 -90 -171 -167 -29 -59 -33 -76 -33 -152 0 -76 3 -92 33
-152 37 -77 90 -128 172 -167 l55 -26 3235 0 3235 0 56 26 c79 37 133 90 171
167 29 59 33 76 33 152 0 76 -4 93 -33 152 -38 77 -92 130 -171 167 l-56 26
-1090 3 -1091 2 -12 90 c-41 302 -264 539 -560 596 -57 11 -169 14 -490 13
-230 -1 -440 -5 -469 -10z"/>
                            <path d="M253 7686 c-102 -32 -176 -97 -222 -196 -22 -46 -26 -69 -26 -140 0
-76 4 -93 33 -152 37 -77 90 -128 172 -167 54 -26 59 -26 298 -29 133 -2 242
-5 242 -6 0 -2 227 -1519 505 -3372 483 -3219 507 -3372 535 -3430 36 -73 91
-126 169 -163 l56 -26 2185 0 2185 0 56 26 c78 37 133 90 169 163 28 58 52
212 535 3430 278 1853 505 3370 505 3372 0 1 109 4 243 6 l243 3 66 33 c77 38
130 92 167 171 22 47 26 70 26 141 0 71 -4 94 -26 141 -37 79 -90 133 -167
171 l-67 33 -3920 2 c-3222 1 -3928 -1 -3962 -11z m2567 -717 c0 -17 70 -1425
155 -3129 85 -1704 155 -3108 155 -3119 0 -21 -2 -21 -365 -21 -201 0 -365 2
-365 3 0 2 -211 1414 -470 3137 -258 1723 -470 3139 -470 3147 0 11 117 13
680 13 l680 0 0 -31z m2060 10 c0 -11 -70 -1415 -155 -3119 -85 -1704 -155
-3112 -155 -3129 l0 -31 -370 0 -370 0 0 31 c0 17 -70 1425 -155 3129 -85
1704 -155 3108 -155 3119 l0 21 680 0 680 0 0 -21z m2060 8 c0 -8 -211 -1424
-470 -3147 -258 -1723 -470 -3135 -470 -3137 0 -1 -164 -3 -365 -3 -363 0
-365 0 -365 21 0 11 70 1415 155 3119 85 1704 155 3112 155 3129 l0 31 680 0
c563 0 680 -2 680 -13z"/>
                        </g>
                    </svg>